<svg width="32" height="32" viewBox="0 0 32 32" fill="none" xmlns="http://www.w3.org/2000/svg">
  <circle cx="16" cy="16" r="15" fill="#7C3AED" stroke="#6D28D9" stroke-width="2"/>
  <path d="M16 8C13.5 8 11 9.5 11 12C11 13 11.5 14 12 14.5C12.5 15 13 15 13.5 15C14 15 14.5 14.5 15 14C15.5 13.5 15.5 13 15.5 12.5C15.5 12 15.5 11.5 16 11.5C16.5 11.5 16.5 12 16.5 12.5C16.5 13 16.5 13.5 17 14C17.5 14.5 18 15 18.5 15C19 15 19.5 15 20 14.5C20.5 14 21 13 21 12C21 9.5 18.5 8 16 8Z" fill="white"/>
  <circle cx="13" cy="18" r="2" fill="white"/>
  <circle cx="19" cy="18" r="2" fill="white"/>
  <path d="M12 23C12 23 13.5 25 16 25C18.5 25 20 23 20 23" stroke="white" stroke-width="2" stroke-linecap="round"/>
</svg>

